# xmcd
#
# Track frame offsets: 
#        150
#        13048
#        27153
#        37352
#        55503
#        66099
#        74020
#        87097
#        99553
#        112749
#        129968
#        143089
#        157973
#        177250
#        191066
#        205326
#        219204
#        225922
#        238062
#        252160
#        265807
#        280491
#
# Disc length: 3948 seconds
#
# Revision: 0
# Processed by: cddbd v1.5.2PL0 Copyright (c) Steve Scherf et al.
# Submitted via: ExactAudioCopy v1.0b1
#
DISCID=320f6a16
DTITLE=Flying Burrito Brothers - Honky Tonk Heaven
DYEAR=1973
DGENRE=West Coast
TTITLE0=Tonight The Bottle Let Me Down
TTITLE1=Your Angel Steps Out Of Heaven
TTITLE2=Close Up The Honky Tonks
TTITLE3=Green, Green Grass Of Home
TTITLE4=Break My Mind
TTITLE5=Just Because
TTITLE6=Dim Lights
TTITLE7=Crazy Arms
TTITLE8=Bony Moronie
TTITLE9=Sing Me Back Home
TTITLE10=Six Days On The Road
TTITLE11=To Love Somebody
TTITLE12=Honky Tonk Woman
TTITLE13=Lodi
TTITLE14=Together Again
TTITLE15=Did You See
TTITLE16=Beat The Heat
TTITLE17=Pick Me Up On Your Way Down
TTITLE18=Payday
TTITLE19=In My Own Small Way
TTITLE20=Feel Good Music
TTITLE21=Here Tonight
EXTD=
EXTT0=
EXTT1=
EXTT2=
EXTT3=
EXTT4=
EXTT5=
EXTT6=
EXTT7=
EXTT8=
EXTT9=
EXTT10=
EXTT11=
EXTT12=
EXTT13=
EXTT14=
EXTT15=
EXTT16=
EXTT17=
EXTT18=
EXTT19=
EXTT20=
EXTT21=
PLAYORDER=
